<svg aria-hidden="true" style="width:0;height:0;position:absolute;overflow:hidden" xmlns="http://www.w3.org/2000/svg"><defs><symbol id="icon-dots" viewBox="0 0 107 32"><path d="M17.248 5.333c2.837 0 5.013.811 6.56 2.443a8.216 8.216 0 0 1 2.314 6.008v-.013a8.14 8.14 0 0 1-2.316 5.943l.002-.002c-1.536 1.536-3.733 2.304-6.56 2.304-2.709 0-4.853-.768-6.432-2.304a7.9 7.9 0 0 1-2.389-5.966v.014c0-2.421.768-4.416 2.315-5.995 1.536-1.632 3.701-2.443 6.507-2.443zm35.765 0c2.827 0 5.013.811 6.56 2.443a8.216 8.216 0 0 1 2.314 6.008v-.013a8.14 8.14 0 0 1-2.316 5.943l.002-.002c-1.547 1.536-3.733 2.304-6.56 2.304-2.709 0-4.853-.768-6.443-2.304a7.902 7.902 0 0 1-2.367-5.955v.014c0-2.421.768-4.416 2.304-5.995 1.536-1.632 3.701-2.443 6.507-2.443zm35.734 0c2.837 0 5.024.811 6.571 2.443a8.217 8.217 0 0 1 2.303 6.009v-.014a8.142 8.142 0 0 1-2.306 5.943l.002-.002c-1.547 1.536-3.733 2.304-6.571 2.304-2.709 0-4.853-.768-6.432-2.304a7.903 7.903 0 0 1-2.378-5.956v.014c0-2.421.768-4.416 2.315-5.995 1.536-1.632 3.712-2.443 6.496-2.443z"/></symbol><symbol id="icon-arrow-left" viewBox="0 0 32 32"><path stroke-width="2.666" stroke-linecap="round" stroke-linejoin="round" d="M25.334 16H6.666M16 25.334 6.666 16 16 6.666"/></symbol><symbol id="icon-arrow-right" viewBox="0 0 32 32"><path stroke-width="2.666" stroke-linecap="round" stroke-linejoin="round" d="M6.666 16h18.668M16 25.334 25.334 16 16 6.666"/></symbol><symbol id="icon-film-1" viewBox="0 0 32 32"><path fill="none" stroke="#fff" style="stroke:var(--color1,#fff)" stroke-linejoin="round" stroke-linecap="round" stroke-width="2.667" d="M26.427 2.667H5.574a2.907 2.907 0 0 0-2.907 2.907v20.853a2.907 2.907 0 0 0 2.907 2.907v0h20.853a2.907 2.907 0 0 0 2.907-2.907v0V5.574a2.907 2.907 0 0 0-2.907-2.907v0zm-17.094 0v26.667M22.667 2.667v26.667M2.667 16h26.667M2.667 9.333h6.667M2.667 22.667h6.667m13.333 0h6.667M22.667 9.333h6.667"/></symbol><symbol id="icon-search" viewBox="0 0 32 32"><path fill="none" stroke="#fff" style="stroke:var(--color1,#fff)" stroke-linejoin="round" stroke-linecap="round" stroke-width="2.667" d="M14.667 25.333c5.891 0 10.667-4.776 10.667-10.667S20.558 3.999 14.667 3.999v0C8.776 3.999 4 8.775 4 14.666s4.776 10.667 10.667 10.667v0zM28 28l-5.8-5.8"/></symbol><symbol id="icon-Vector" viewBox="0 0 34 32"><path fill="#ff6b08" style="fill:var(--color1,#ff6b08)" d="m17.231 31.705-2.412-2.412C5.859 21.367.001 16.025.001 9.478.001 4.136 4.136.001 9.478.001c2.929 0 5.858 1.378 7.754 3.618 1.895-2.24 4.825-3.618 7.754-3.618 5.342 0 9.477 4.135 9.477 9.477 0 6.548-5.858 11.889-14.818 19.815l-2.412 2.412z"/></symbol><symbol id="close" viewBox="0 0 32 32"><path d="m26.667 7.303-1.97-1.97-7.808 7.808-7.808-7.808-1.97 1.97 7.808 7.808-7.808 7.808 1.97 1.97 7.808-7.808 7.808 7.808 1.97-1.97-7.808-7.808 7.808-7.808z"/></symbol></defs></svg>